<svg xmlns="http://www.w3.org/2000/svg" width="351.141" height="460.551" viewBox="0 0 351.141 460.551">
  <g id="グループ_9189" data-name="グループ 9189" transform="translate(-12 -1417.588)">
    <g id="グループ_9091" data-name="グループ 9091" transform="translate(-3.33)">
      <g id="長方形_231" data-name="長方形 231" transform="matrix(0.999, 0.035, -0.035, 0.999, 31, 1418)" fill="#fff" stroke="#45c7fb" stroke-width="3">
        <rect width="327" height="449" stroke="none"/>
        <rect x="1.5" y="1.5" width="324" height="446" fill="none"/>
      </g>
      <g id="長方形_232" data-name="長方形 232" transform="translate(24 1429) rotate(-2)" fill="#fff" stroke="#45c7fb" stroke-width="3">
        <rect width="327" height="449" stroke="none"/>
        <rect x="1.5" y="1.5" width="324" height="446" fill="none"/>
      </g>
    </g>
    <text id="マツリゴト_JAPAN_2021" data-name="マツリゴト
JAPAN 2021" transform="translate(184.67 1467)" fill="#45c7fb" font-size="24" font-family="HiraginoSans-W8, Hiragino Sans" letter-spacing="0.01em"><tspan x="-60.6" y="0">マツリゴト</tspan><tspan y="0" font-family="Montserrat-Black, Montserrat" font-weight="800"></tspan><tspan font-family="Montserrat-Black, Montserrat" font-weight="800"><tspan x="-76.548" y="32">JAPAN 2021</tspan></tspan></text>
    <text id="_マツリゴト_JAPAN_2021_は衆院選で投票した方のみが参加できる特別なイベントです_本プロジェクトに賛同してくださったアーティストたちのスペシャルライブや_選挙に関するトーク企画などが繰り広げられます_" data-name="『マツリゴト JAPAN 2021』は衆院選で投票した方のみが参加できる特別なイベントです。
本プロジェクトに賛同してくださったアーティストたちのスペシャルライブや、選挙に関するトーク企画などが繰り広げられます！" transform="translate(36.67 1583)" fill="#333" font-size="14" font-family="NotoSansJP-Medium, Noto Sans JP" font-weight="500" letter-spacing="-0.01em"><tspan x="-144.193" y="16">『マツリゴト </tspan><tspan y="16">JAPAN 2021』</tspan><tspan y="16">は</tspan><tspan y="16">衆院選</tspan><tspan y="16">で</tspan><tspan y="16">投票</tspan><tspan y="16">し</tspan><tspan x="-137.83" y="48.5">た</tspan><tspan y="48.5">方</tspan><tspan y="48.5">のみが</tspan><tspan y="48.5">参加</tspan><tspan y="48.5">できる</tspan><tspan y="48.5">特別</tspan><tspan y="48.5">なイベントです。</tspan><tspan x="-144.34" y="81">本</tspan><tspan y="81">プロジェクトに</tspan><tspan y="81">賛同</tspan><tspan y="81">してくださったアーティ</tspan><tspan x="-144.9" y="113.5">ストたちのスペシャルライブや、</tspan><tspan y="113.5">選挙</tspan><tspan y="113.5">に</tspan><tspan y="113.5">関</tspan><tspan y="113.5">する</tspan><tspan x="-117.88" y="146">トーク</tspan><tspan y="146">企画</tspan><tspan y="146">などが</tspan><tspan y="146">繰</tspan><tspan y="146">り</tspan><tspan y="146">広</tspan><tspan y="146">げられます！</tspan></text>
    <text id="_2021.10.31_SUN._15:00_21:00" data-name="2021.10.31 (SUN.)　15:00~21:00" transform="translate(184.67 1523)" fill="#333" font-size="14" font-family="Montserrat-Medium, Montserrat" font-weight="500" letter-spacing="-0.01em"><tspan x="-100.086" y="0">2021.10.31 (SUN.)</tspan><tspan y="0" font-family="HiraginoSans-W4, Hiragino Sans" font-weight="400">　</tspan><tspan y="0">15:00~21:00</tspan></text>
    <text id="_オンライン配信" data-name="@オンライン配信" transform="translate(184.67 1555)" fill="#333" font-size="14" font-family="NotoSansJP-Bold, Noto Sans JP" font-weight="700" letter-spacing="-0.01em"><tspan x="-55.559" y="0">@オンライン</tspan><tspan y="0">配信</tspan></text>
  </g>
</svg>
